<?xml version="1.0" encoding="utf-8"?>
<!-- Generator: Adobe Illustrator 19.0.1, SVG Export Plug-In . SVG Version: 6.00 Build 0)  -->
<svg version="1.1" id="Layer_1" xmlns="http://www.w3.org/2000/svg" xmlns:xlink="http://www.w3.org/1999/xlink" x="0px" y="0px"
	 viewBox="94 -4 800 800" style="enable-background:new 94 -4 800 800;" xml:space="preserve">
<style type="text/css">
	.st0{fill:#383838;}
	.st1{fill:#FFFFFF;}
</style>
<g>
	<path class="st0" d="M306.4,388.6c0-101.6,0-203.2,0-304.8c0-8.3,0.4-16.6,3-24.7c4.6-13.9,14.3-23,27.2-29.1
		c10.7-5.1,22.1-7.1,33.7-8.7c22.8-3.2,45.7-4.5,68.7-5.5c46.6-2.1,93.2-2,139.7,0.5c18.9,1,37.7,2.4,56.4,5.4
		c13,2,25.5,5.3,36.4,13c13.2,9.4,20.8,22.2,21.3,38.4c0.6,21.8,0.5,43.6,0.7,65.3c0.2,17.2,0.5,34.5,0.5,51.7
		c-0.1,32.7-0.6,65.5-0.6,98.2c-0.1,131.7-0.2,263.4-0.3,395.1c0,8.7,0.1,17.4-0.5,26.1c-1.4,20.2-12.2,34-30.2,42.4
		c-5.7,2.6-11.8,4.2-17.8,6.1c-1.4,0.5-2.4,0.8-2.7,2.5c-0.4,2-1.9,3.3-3.9,3.7c-5.5,1-11,2.3-16.5,2.7c-29.7,2.2-59.4,1.8-89.1,2
		c-16.1,0.1-32.2,0.3-48.3,0.2c-21,0-42.1-0.1-63.1-0.5c-14.3-0.3-28.6-1-42.8-1.8c-5-0.3-10-1.3-15-2.2c-2.8-0.5-5.2-1.7-5.3-5.2
		c0-0.5-1.1-1.3-1.8-1.5c-5.8-2.1-11.9-3.6-17.6-6.1c-12.5-5.4-22.4-13.7-27.6-26.7c-2.9-7-4-14.5-4.1-22
		c-0.2-20.6-0.3-41.3-0.3-61.9c0-84.2,0-168.4,0-252.6C306.5,388.6,306.4,388.6,306.4,388.6z M326.9,100.3c0,193.7,0,387.2,0,580.7
		c116.2,0,232.3,0,348.3,0c0-193.7,0-387.1,0-580.7C559.1,100.3,443.1,100.3,326.9,100.3z M308.8,95.1c-0.1,0-0.2,0-0.3,0
		c0,38.8,0,77.7,0,116.5c0.1,0,0.2,0,0.3,0C308.8,172.8,308.8,134,308.8,95.1z M308.8,214.4C308.8,214.4,308.7,214.4,308.8,214.4
		c-0.1,8.1-0.1,16.3-0.1,24.4h0.1C308.8,230.7,308.8,222.5,308.8,214.4z"/>
	<path class="st0" d="M331.1,129.7c0,34.3,0,68.7,0,103c-0.1,0-0.2,0-0.3,0c0-34.3,0-68.7,0-103C330.9,129.7,331,129.7,331.1,129.7z
		"/>
	<path class="st1" d="M459,66.1c17.8,0,35.6,0,53.4,0c-17.8,0-35.6,1.1-53.5,0.6C459,66.5,459,66.3,459,66.1z"/>
	<path class="st0" d="M331.1,235.1c0,7.2,0,14.4,0,21.6H331C331,249.4,331,242.2,331.1,235.1C331,235.1,331.1,235.1,331.1,235.1z"/>
	<path class="st0" d="M669.1,310.1c0,2.8,0,5.5,0,8.3c-0.1,0-0.2,0-0.2,0c0-2.8,0-5.5,0-8.3C668.9,310.1,669,310.1,669.1,310.1z"/>
	<path class="st0" d="M668.7,302.7c0-3.4,0-6.8,0-10.2c0.1,0,0.2,0,0.2,0c0,3.4,0,6.8,0,10.2C668.9,302.7,668.8,302.7,668.7,302.7z"
		/>
	<path class="st0" d="M669,321c0,2.9,0,5.9,0,8.8c-0.1,0-0.2,0-0.3,0c0-2.9,0-5.9,0-8.8C668.8,321,668.9,321,669,321z"/>
</g>
</svg>
